<?xml version="1.0" encoding="UTF-8"?>
<svg version="1.1" xmlns="http://www.w3.org/2000/svg" width="512" height="512">
<path d="M0 0 C2.48186657 3.72279985 2.531919 6.6873644 2 11 C0.38879472 15.18913372 -1.5676164 18.10392634 -5 21 C-7.99989908 21.99996636 -9.87585199 22.09063272 -13 22.02734375 C-14.4540625 22.00897461 -14.4540625 22.00897461 -15.9375 21.99023438 C-17.97923764 21.9550769 -20.02091177 21.91601397 -22.0625 21.87304688 C-23.031875 21.86208984 -24.00125 21.85113281 -25 21.83984375 C-25.886875 21.82300537 -26.77375 21.80616699 -27.6875 21.78881836 C-30.27641454 21.83996984 -30.27641454 21.83996984 -33 24 C-34.14521165 25.94870945 -34.14521165 25.94870945 -35.07788086 28.28076172 C-35.45980591 29.17230957 -35.84173096 30.06385742 -36.23522949 30.98242188 C-36.6410022 31.95501953 -37.0467749 32.92761719 -37.46484375 33.9296875 C-37.89422241 34.93854004 -38.32360107 35.94739258 -38.76599121 36.98681641 C-40.16505413 40.27932234 -41.5513685 43.57703168 -42.9375 46.875 C-43.89832423 49.14375027 -44.85999634 51.41214164 -45.82250977 53.68017578 C-47.71233899 58.13543058 -49.59794498 62.59243512 -51.48046875 67.05078125 C-53.4855583 71.79367522 -55.51021981 76.52735151 -57.5625 81.25 C-63.09289495 93.98548696 -68.39657326 106.80064724 -73.5625 119.6875 C-73.86517792 120.44101746 -74.16785583 121.19453491 -74.47970581 121.97088623 C-81.94977524 138.6435369 -81.94977524 138.6435369 -82 156.375 C-80.98041685 161.17738439 -80.70901354 165.8572615 -80.625 170.75 C-80.58632813 171.831604 -80.58632813 171.831604 -80.546875 172.93505859 C-80.52268081 179.47505084 -82.8903661 182.81527743 -87.3046875 187.38671875 C-92.92840173 192.42071219 -98.67588017 197.18557624 -104.64135742 201.80541992 C-108.90386447 205.11198201 -113.0714628 208.51285039 -117.1875 212 C-117.72810059 212.45689209 -118.26870117 212.91378418 -118.82568359 213.38452148 C-121.31317322 215.50321477 -123.7395884 217.63860781 -126 220 C-125.31035156 220.73863281 -124.62070312 221.47726563 -123.91015625 222.23828125 C-119.29137964 227.21438442 -114.75772135 232.20682555 -110.5 237.5 C-107.30065439 241.47632954 -103.97384322 245.26636851 -100.5 249 C-96.21408529 253.61325943 -92.14496172 258.34845041 -88.2109375 263.26953125 C-86.66995748 265.17261434 -85.08818808 267.04307896 -83.4765625 268.88671875 C-82.65929687 269.83160156 -81.84203125 270.77648437 -81 271.75 C-79.88625 273.01070313 -79.88625 273.01070313 -78.75 274.296875 C-76.60980618 277.60271009 -76.20808148 280.09168697 -76 284 C-77.24655513 287.60115926 -78.35351484 289.47582284 -81.3125 291.875 C-84.43516755 293.18216316 -86.64471663 293.29824741 -90 293 C-90.66 292.67 -91.32 292.34 -92 292 C-92.0825 292.7425 -92.165 293.485 -92.25 294.25 C-93.18397454 297.67457332 -94.14551893 298.89669816 -97 301 C-101.69542622 302.1951994 -104.67437961 302.2283499 -109 300 C-109.0825 300.598125 -109.165 301.19625 -109.25 301.8125 C-110.24784035 304.7228677 -111.33770358 305.4889669 -114 307 C-119.35446863 308.66583469 -122.19619409 307.40190295 -127 305 C-127.226875 305.61875 -127.45375 306.2375 -127.6875 306.875 C-129.4628632 309.74939757 -130.73488994 310.20186198 -134 311 C-138.61416513 310.7571492 -141.56653089 310.15879158 -145 307 C-145.350625 307.474375 -145.70125 307.94875 -146.0625 308.4375 C-148.96986612 310.7821501 -151.30958661 310.87490124 -155 311 C-158.34632935 309.64859776 -161.0005904 307.9996064 -164 306 C-165.11375 306.4640625 -165.11375 306.4640625 -166.25 306.9375 C-170.00246955 308.38731778 -172.14595711 308.10115511 -176 307 C-177.2065625 305.453125 -177.2065625 305.453125 -178.4375 303.875 C-179.283125 302.92625 -180.12875 301.9775 -181 301 C-184.6447774 301.2028422 -184.6447774 301.2028422 -187.00390625 301.75390625 C-190.29361193 302.1594864 -192.32919036 300.78053976 -195 299 C-197 296 -197 296 -197 292 C-197.66 292.33 -198.32 292.66 -199 293 C-203.58892907 293.12402511 -207.00002182 292.92305678 -210.4375 289.75 C-211.88248279 287.20683028 -213.05193535 284.76518857 -214 282 C-215.051875 281.95875 -216.10375 281.9175 -217.1875 281.875 C-221 281 -221 281 -223.9375 278.375 C-226.28528282 274.53317357 -226.44197866 272.41978657 -226 268 C-227.0725 267.938125 -228.145 267.87625 -229.25 267.8125 C-233 267 -233 267 -235.4375 265 C-237.55924321 260.92625304 -237.35307679 257.50172909 -237 253 C-237.928125 252.773125 -238.85625 252.54625 -239.8125 252.3125 C-243 251 -243 251 -244.875 248.8125 C-246.25776496 245.35558761 -246.27871132 242.692925 -246 239 C-245.67 238.34 -245.34 237.68 -245 237 C-245.969375 236.21625 -246.93875 235.4325 -247.9375 234.625 C-249.83962346 233.08711295 -250.89629957 232.20740087 -252 230 C-252.35555556 222.53333333 -252.35555556 222.53333333 -250 219 C-250.825 218.175 -251.65 217.35 -252.5 216.5 C-255.10996612 213.34722041 -255.68294365 211.02034503 -255.44140625 206.96875 C-254.705709 203.68741006 -253.08693485 201.60866856 -251 199 C-251.66 199 -252.32 199 -253 199 C-255.45716226 195.31425661 -255.84398931 191.27730502 -255 187 C-253.55465003 184.61290633 -251.99584939 182.99584939 -250 181 C-250.66 180.01 -251.32 179.02 -252 178 C-252.67116683 171.06460945 -252.67116683 171.06460945 -250.1875 167.125 C-248 165 -248 165 -245 163 C-245.33 162.34 -245.66 161.68 -246 161 C-246.43103448 153.24137931 -246.43103448 153.24137931 -244 150 C-239.71428571 147 -239.71428571 147 -237 147 C-237.04640625 146.40832031 -237.0928125 145.81664062 -237.140625 145.20703125 C-237.33182539 141.02110854 -237.40332849 138.6675782 -235.1875 135 C-232.36027586 132.41510936 -230.47988406 132.04527208 -226.6875 131.6875 C-219.81703279 132.26974298 -214.99074813 137.58807066 -210 142 C-208.67353742 143.16186984 -207.34670575 144.32331843 -206.01953125 145.484375 C-205.35131348 146.07025391 -204.6830957 146.65613281 -203.99462891 147.25976562 C-200.91340565 149.94801034 -197.79971385 152.59777419 -194.6875 155.25 C-190.67621135 158.67402665 -186.71343287 162.13728191 -182.8125 165.6875 C-179.28041584 168.86929482 -175.73418708 172.03072997 -172.125 175.125 C-171.24070312 175.89070312 -170.35640625 176.65640625 -169.4453125 177.4453125 C-167.15164062 179.26209443 -167.15164062 179.26209443 -164.6796875 178.7421875 C-164.12539063 178.49726563 -163.57109375 178.25234375 -163 178 C-161.98205626 171.58695441 -162.03133361 165.73095834 -162.75 159.3125 C-162.82395996 158.60037354 -162.89791992 157.88824707 -162.97412109 157.15454102 C-164.71044252 143.11900471 -174.5397467 135.78884656 -185.015625 127.4140625 C-188.40255135 124.674376 -191.70315408 121.84676762 -195 119 C-200.92057335 113.89965519 -206.93042679 108.92249613 -213 104 C-214.72974276 102.5840368 -216.45889561 101.1673527 -218.1875 99.75 C-220.12456379 98.16613303 -222.06211036 96.58285642 -224 95 C-224.59973633 94.50983398 -225.19947266 94.01966797 -225.81738281 93.51464844 C-232.81035161 87.80272677 -239.81680816 82.11474846 -246.9375 76.5625 C-252.30287217 72.37893469 -257.56869 68.08475326 -262.8125 63.75 C-263.53937012 63.1530835 -264.26624023 62.55616699 -265.01513672 61.94116211 C-267.97385194 59.51091026 -270.91408133 57.07511883 -273.796875 54.5546875 C-277.15521183 51.69431096 -279.25639899 50.15384849 -283.625 49.25 C-287.0808579 49.54029206 -290.15650423 50.72776781 -293.40063477 51.90820312 C-300.4828281 54.47940625 -305.79844906 56.08962438 -313 53 C-319.69100093 49.76404993 -326.03488765 46.46166457 -330 40 C-329.67 39.01 -329.34 38.02 -329 37 C-310.33543017 32.47658661 -281.86734966 29.75281947 -264.84375 40.1171875 C-263.9053125 40.73851562 -262.966875 41.35984375 -262 42 C-261.46503906 42.35094727 -260.93007813 42.70189453 -260.37890625 43.06347656 C-257.28593865 45.09564745 -254.21343508 47.15641311 -251.1484375 49.23046875 C-246.69807074 52.22487778 -242.16771948 55.08583232 -237.625 57.9375 C-231.61933226 61.71032976 -225.63453187 65.51035164 -219.6875 69.375 C-213.14956733 73.62241138 -206.58151849 77.82045837 -200 82 C-192.55641949 86.72740112 -185.13381842 91.4848699 -177.73657227 96.28442383 C-172.17869166 99.88966429 -166.59806182 103.45738205 -161 107 C-161.70125 106.34 -162.4025 105.68 -163.125 105 C-171.83879493 96.13596723 -171.83879493 96.13596723 -172.15625 91.9296875 C-171.875 90 -171.875 90 -171 87 C-170.01 86.67 -169.02 86.34 -168 86 C-167.15201066 84.20302073 -167.15201066 84.20302073 -166.625 82 C-163.90773685 73.22114982 -159.88961004 66.05407632 -152 61 C-143.69092351 57.03238583 -132.47276229 54.2144104 -123.39453125 56.71875 C-120.52987352 58.25155218 -118.4937557 60.15383032 -116.125 62.375 C-109.66799317 67.86036422 -103.12298832 69.43240576 -95 71 C-95.14179688 71.556875 -95.28359375 72.11375 -95.4296875 72.6875 C-96.39745206 77.62274864 -96.39745206 77.62274864 -94.6953125 82.203125 C-93.57967754 83.55011284 -92.45870898 84.89270386 -91.33203125 86.23046875 C-90 88 -90 88 -89.6875 90.5625 C-92.10902043 95.05960936 -95.91805168 98.51572125 -100.0546875 101.46484375 C-102.0029929 102.87716955 -103.54716393 104.07792495 -105 106 C-105.84344316 111.69838425 -103.53109573 116.02799212 -101 121 C-96.577585 112.16648577 -92.1651446 103.32814042 -87.77128506 94.48038578 C-84.63102413 88.15724768 -81.48493307 81.83702497 -78.33665562 75.51787472 C-76.23711565 71.3031249 -74.13986269 67.08726787 -72.04760742 62.86889648 C-69.99485288 58.73042728 -67.93598518 54.59504959 -65.87312126 50.46161079 C-65.09968594 48.90928355 -64.32832796 47.35591913 -63.55929756 45.80140495 C-59.67955123 37.96211142 -55.68399093 30.22384891 -51.24194336 22.68579102 C-50.88445542 22.07009971 -50.52696749 21.4544084 -50.15864658 20.82005978 C-43.99774922 10.59257853 -33.60305561 7.23489175 -22.83447266 3.61816406 C-21.26091129 3.08791954 -19.69761685 2.52737528 -18.13671875 1.9609375 C-12.29034961 -0.03447398 -6.15389869 -1.08975289 0 0 Z M-159 108 C-156.08427072 111.10140072 -153.0633958 113.48748213 -149.5 115.8125 C-148.5615625 116.43769531 -147.623125 117.06289062 -146.65625 117.70703125 C-144.13425965 119.2350397 -144.13425965 119.2350397 -141.65625 118.69921875 C-141.1096875 118.46847656 -140.563125 118.23773438 -140 118 C-142.036994 116.70043409 -144.07907615 115.4103739 -146.125 114.125 C-146.97964844 113.57779297 -146.97964844 113.57779297 -147.8515625 113.01953125 C-151.46472705 110.7613034 -154.90886041 109.1813321 -159 108 Z " fill="#000000" transform="translate(497,0)"/>
<path d="M0 0 C9.90856861 5.00995042 18.51561536 13.71156181 26.0859375 21.6796875 C37.71781673 33.48178935 53.94209023 36.105525 69.62184334 39.17071915 C71.8461148 39.60558008 74.06884928 40.04768961 76.29136658 40.49142456 C79.47408072 41.12631724 82.65730618 41.75854303 85.8409729 42.38864136 C94.17809797 44.04041816 102.50956025 45.72034924 110.83984375 47.40625 C111.66593077 47.57342215 112.49201778 47.74059429 113.34313774 47.91283226 C144.78690083 54.28563337 176.11011059 61.23510456 206.8984375 70.3046875 C207.10564798 72.07170632 207.29976939 73.84026365 207.48828125 75.609375 C207.65251587 77.08639893 207.65251587 77.08639893 207.82006836 78.59326172 C207.9231262 82.15887021 206.58147623 84.20789623 204.8984375 87.3046875 C204.4465827 91.37878818 204.67181645 95.23956856 205.5234375 99.2421875 C206.07966458 103.78470866 204.95429629 107.88927803 203.8984375 112.3046875 C199.28385229 111.59852896 195.13360846 109.93118724 190.83203125 108.19140625 C190.02771667 107.87044479 189.2234021 107.54948334 188.39471436 107.21879578 C186.63768106 106.51760005 184.88133059 105.8146915 183.12557983 105.11029053 C178.25773973 103.15923512 173.3826804 101.22638359 168.5078125 99.29296875 C166.96247078 98.67983826 166.96247078 98.67983826 165.38591003 98.05432129 C134.82906235 85.94635333 104.08958513 74.30936494 73.27972794 62.8628006 C71.31412185 62.13230734 69.34884872 61.40092458 67.38363647 60.66937256 C63.64791454 59.27934309 59.91014026 57.89489505 56.171875 56.51171875 C54.97752335 56.06842224 53.78317169 55.62512573 52.55262756 55.168396 C46.62236397 52.98283109 40.67933799 50.87888428 34.67285156 48.91162109 C33.50783112 48.52592453 32.34281067 48.14022797 31.14248657 47.74284363 C28.97201569 47.03016029 26.79622473 46.33335816 24.61410522 45.65718079 C14.30564806 42.26567131 6.35904544 35.96977851 -1.4765625 28.6171875 C-2.43304688 27.72644531 -3.38953125 26.83570312 -4.375 25.91796875 C-6.98715356 23.41434306 -9.55373809 20.87360317 -12.1015625 18.3046875 C-12.70742188 17.71945313 -13.31328125 17.13421875 -13.9375 16.53125 C-16.93765549 13.40926079 -18.07497845 12.0889171 -18.2265625 7.6171875 C-15.3539012 -0.84120411 -8.01920145 -2.65319304 0 0 Z " fill="#000000" transform="translate(31.1015625,99.6953125)"/>
<path d="M0 0 C0.99 0.598125 1.98 1.19625 3 1.8125 C5.63653952 3.33583394 8.17798968 4.47043874 11.0625 5.4375 C14.49785179 6.63496548 16.48759431 8.34135368 19.17578125 10.80859375 C22.46222974 12.95498944 26.3057391 13.42505882 30.09765625 14.25 C33.9407782 15.24310823 36.63795148 16.91552992 40 19 C41.9812585 19.72045764 43.97669589 20.40781343 46 21 C44.21988908 29.91072666 41.53992607 38.55388757 38.9375 47.25 C38.24639715 49.56284264 37.55624467 51.87595069 36.86878967 54.18988037 C36.44360967 55.62075191 36.01634465 57.05100612 35.58665466 58.48052979 C30.77335357 74.66627617 33.17477799 91.02593855 35.6875 107.4375 C35.9618515 109.28874328 36.23568994 111.14006266 36.5090332 112.99145508 C38.88260934 128.89339649 41.50828529 144.77237561 44.9765625 160.4765625 C49.42919995 180.90875864 44.79939612 196.52344246 34 214 C31.98828125 216.4140625 31.98828125 216.4140625 30 218 C26.25 218.25 26.25 218.25 23 218 C21.58971765 213.13797762 22.32035424 208.73955685 22.9375 203.8125 C24.81947754 192.05690411 24.81947754 192.05690411 22.5 180.75 C19.83747596 177.82122356 17.08502432 175.68320492 13.8046875 173.4921875 C10.90260262 171.09262814 10.12047258 168.79167698 9.5625 165.125 C10.27268969 160.05221647 13.54869758 157.25518047 17.3125 154 C19.23702409 152.09220069 19.23702409 152.09220069 19.31103516 149.34130859 C18.93223213 145.27200073 17.51074673 142.13993983 15.7109375 138.5390625 C15.37003082 137.83083344 15.02912415 137.12260437 14.67788696 136.39291382 C13.58786321 134.13144256 12.48279092 131.87781445 11.375 129.625 C-0.28026059 105.7958852 -4.56422848 89.74627086 -0.70898438 62.97949219 C1.09926792 50.26637144 1.41197818 37.88574653 0.5 25.0625 C-0.03331491 16.69961001 -0.10271416 8.37691062 0 0 Z " fill="#000000" transform="translate(281,294)"/>
</svg>
