<?xml version="1.0" encoding="UTF-8"?>
<svg version="1.1" xmlns="http://www.w3.org/2000/svg" width="512" height="512">
<path d="M0 0 C0.67398834 -0.00686325 1.34797668 -0.0137265 2.04238892 -0.02079773 C4.25373851 -0.03898778 6.46437345 -0.03524027 8.67578125 -0.02954102 C10.22225168 -0.03410612 11.76872007 -0.03941268 13.31518555 -0.04542542 C16.549726 -0.05434081 19.78401932 -0.05195092 23.01855469 -0.04199219 C27.15461343 -0.03049579 31.28981925 -0.05073141 35.42576599 -0.07990932 C38.6172015 -0.09829164 41.80843327 -0.09797503 44.99990845 -0.0922718 C46.52447711 -0.09211888 48.04905984 -0.09813915 49.57357788 -0.11056328 C51.70844444 -0.12551368 53.84174356 -0.11476989 55.9765625 -0.09765625 C57.79474487 -0.097407 57.79474487 -0.097407 59.6496582 -0.09715271 C65.33563746 0.75644583 69.0910521 4.25070861 73.0390625 8.22436523 C74.08610352 9.27430664 74.08610352 9.27430664 75.15429688 10.34545898 C76.21680664 11.42633789 76.21680664 11.42633789 77.30078125 12.52905273 C78.02845703 13.25737305 78.75613281 13.98569336 79.50585938 14.73608398 C86.13752662 21.42337565 86.13752662 21.42337565 86.3515625 26.85717773 C86.27651504 33.10739903 84.01556217 37.68796178 81.17578125 43.15405273 C80.44331177 44.62177124 80.44331177 44.62177124 79.69604492 46.11914062 C78.66886655 48.17234858 77.63298329 50.2212225 76.58886719 52.26586914 C74.97462267 55.43083239 73.38789366 58.60824287 71.80859375 61.79077148 C69.21963883 67.00425413 66.61138862 72.20767781 63.98828125 77.40405273 C68.14059967 78.80224647 72.29114423 80.19038882 76.48046875 81.47436523 C117.14256609 94.15192445 150.23297741 122.81909225 170.08178711 160.29516602 C177.54348409 175.12000569 182.346566 191.05240052 184.98828125 207.40405273 C185.16335205 208.48017822 185.33842285 209.55630371 185.51879883 210.66503906 C186.00738098 214.55616527 186.16650474 218.38009256 186.19140625 222.29467773 C186.19842056 223.03269623 186.20543488 223.77071472 186.21266174 224.53109741 C186.23010186 226.90547836 186.23651575 229.27961005 186.23828125 231.65405273 C186.23895599 232.46428894 186.23963074 233.27452515 186.24032593 234.10931396 C186.22440947 246.1204372 185.81461286 257.67867109 182.98828125 269.40405273 C182.82199219 270.1360791 182.65570313 270.86810547 182.484375 271.62231445 C177.64997474 292.5042378 168.08287515 314.08876719 153.98828125 330.40405273 C156.65119416 331.41517018 159.31726051 332.414724 161.98828125 333.40405273 C162.70161621 333.67137207 163.41495117 333.93869141 164.14990234 334.21411133 C185.17595107 341.83739942 208.64836413 342.23303553 229.98828125 335.40405273 C230.66600586 335.19506348 231.34373047 334.98607422 232.04199219 334.77075195 C247.16294028 329.99402084 260.20934755 321.99581831 271.98828125 311.40405273 C272.75527344 310.71956055 273.52226562 310.03506836 274.3125 309.32983398 C293.64027094 291.0814499 305.32756726 264.1291838 306.19140625 237.62670898 C306.64832018 207.87270355 298.07744938 181.74489645 277.98828125 159.40405273 C277.30378906 158.63706055 276.61929687 157.87006836 275.9140625 157.07983398 C255.96663686 135.95252364 227.20786572 124.64559662 198.5078125 123.34545898 C195.2437734 123.29440219 192.21512401 123.62367723 189 124.18139648 C176.42350121 126.36288463 176.42350121 126.36288463 172.2109375 123.54858398 C169.87908174 120.62638499 167.97482418 117.56999036 165.98828125 114.40405273 C164.04121508 112.06257566 161.96292732 109.85866506 159.86328125 107.65405273 C158.83203014 106.55118919 157.8007801 105.44832464 156.76953125 104.34545898 C155.84286668 103.36459444 154.91582819 102.38408291 153.98828125 101.40405273 C153.33859375 100.71182617 152.68890625 100.01959961 152.01953125 99.30639648 C147.40174316 94.52524324 142.23682674 90.46982741 136.98828125 86.40405273 C155.45041994 71.20370067 192.46695226 71.94979957 214.81982422 73.61499023 C231.76151194 75.27366094 248.58928097 80.18972658 263.98828125 87.40405273 C265.67824219 88.1890918 265.67824219 88.1890918 267.40234375 88.98999023 C283.48585557 96.73390333 296.9668396 107.3111716 309.98828125 119.40405273 C310.95314453 120.27030273 310.95314453 120.27030273 311.9375 121.15405273 C340.71099094 148.17821194 355.68816398 189.01648568 357.11328125 227.80639648 C357.87981598 272.69658682 340.82121774 312.83556647 310.1171875 345.23608398 C283.23541831 372.89992879 243.77982389 389.57114762 205.34375 390.60717773 C176.03541895 390.9792793 140.98607641 386.39712645 116.6171875 368.71264648 C114.12169661 367.1281836 114.12169661 367.1281836 111.73046875 367.89624023 C110.82554687 368.39381836 109.920625 368.89139648 108.98828125 369.40405273 C107.55459403 370.12133275 106.11806358 370.83294105 104.6796875 371.54077148 C103.86137451 371.94996826 103.04306152 372.35916504 102.19995117 372.78076172 C62.32291361 392.51164502 17.80373235 396.12315935 -24.6015625 382.23657227 C-63.45323888 368.81637206 -96.65169867 339.80416074 -114.9140625 302.98217773 C-133.47313514 263.59502777 -136.06474839 219.54452612 -122.07861328 178.31079102 C-113.88423023 155.72852863 -100.64843464 136.52793453 -84.01171875 119.40405273 C-83.47748291 118.84717773 -82.94324707 118.29030273 -82.39282227 117.71655273 C-78.37801308 113.5986842 -74.18508688 109.96277635 -69.57421875 106.52905273 C-68.88465088 106.01511963 -68.19508301 105.50118652 -67.48461914 104.97167969 C-60.3496583 99.76268083 -52.85844115 95.43979411 -45.01171875 91.40405273 C-44.41601074 91.09129395 -43.82030273 90.77853516 -43.20654297 90.45629883 C-35.20890468 86.29894596 -27.10445458 83.36108854 -18.51953125 80.69311523 C-17.50576416 80.3744751 -16.49199707 80.05583496 -15.44750977 79.72753906 C-12.97002781 78.94940242 -10.49144526 78.17500039 -8.01171875 77.40405273 C-8.28511581 76.87058228 -8.55851288 76.33711182 -8.8401947 75.78747559 C-11.69354253 70.21393147 -14.52969732 64.63188138 -17.35620117 59.04467773 C-18.41207049 56.96303744 -19.47224565 54.88357521 -20.53686523 52.80639648 C-22.06992495 49.81338228 -23.58712409 46.81277341 -25.1015625 43.81030273 C-25.57762436 42.88914673 -26.05368622 41.96799072 -26.54417419 41.0189209 C-29.43637542 35.23749474 -32.02861981 29.72147908 -30.47607422 23.12988281 C-27.6840205 18.04991567 -24.29490118 14.11289476 -20.13671875 10.09155273 C-19.53730469 9.48504883 -18.93789062 8.87854492 -18.3203125 8.25366211 C-12.74113767 2.75315243 -8.05094828 0.03588679 0 0 Z M-1.01171875 126.40405273 C-1.67107422 126.59741211 -2.33042969 126.79077148 -3.00976562 126.98999023 C-18.79192665 131.72025866 -32.82785377 139.23550984 -45.01171875 150.40405273 C-45.924375 151.23549805 -46.83703125 152.06694336 -47.77734375 152.92358398 C-67.74212191 171.96819779 -80.31066025 198.4411569 -81.21484375 226.18139648 C-81.69692861 257.98671451 -71.61070272 286.08034683 -49.54467773 309.21826172 C-44.17247153 314.6880044 -38.54583976 319.37643203 -32.01171875 323.40405273 C-30.45904297 324.38825195 -30.45904297 324.38825195 -28.875 325.39233398 C-20.05999161 330.81272699 -10.92079822 334.4783116 -1.01171875 337.40405273 C0.14328125 337.7456543 1.29828125 338.08725586 2.48828125 338.43920898 C27.07281007 344.44565637 50.65054131 340.10692679 72.98828125 329.40405273 C72.61751465 328.91936523 72.24674805 328.43467773 71.86474609 327.93530273 C46.5307877 294.53141465 33.5011014 255.99331174 38.75756836 213.79174805 C41.84869433 192.49968197 49.36867851 173.49361995 58.98828125 154.40405273 C74.67470299 159.18423451 88.94308913 170.83626456 97.98828125 184.40405273 C97.62003525 187.84659487 96.5175001 190.7011098 95.11328125 193.84155273 C85.47852717 217.31531723 86.41229567 247.72760174 95.546875 271.20483398 C97.95256768 276.54429823 100.83300684 281.47716933 103.98828125 286.40405273 C104.33890625 286.95996094 104.68953125 287.51586914 105.05078125 288.08862305 C108.36093126 293.35646924 108.36093126 293.35646924 111.98828125 298.40405273 C112.64828125 298.40405273 113.30828125 298.40405273 113.98828125 298.40405273 C131.63673837 275.29995224 139.9899199 246.35254946 136.21923828 217.48681641 C131.90713479 188.47032305 117.51404117 162.80626521 94.17578125 144.77905273 C67.2029931 125.26105528 31.55630352 116.58903232 -1.01171875 126.40405273 Z " fill="#000000" transform="translate(143.01171875,60.595947265625)"/>
</svg>
